<svg width="40" height="40" viewBox="0 0 40 40" fill="none" xmlns="http://www.w3.org/2000/svg">
<path d="M38.063 38.7087V36.1339H36.126V33.5591H34.189V30.9843H32.8976V15.5354H34.189V12.9606H37.4173V7.16535H34.0472L20 0L5.95276 7.16535H2.58268V12.9606H5.81102V15.5354H7.10236V30.9921H5.80315V33.5669H3.87402V36.1417H1.93701V38.7165H0V40H40V38.7087H38.063ZM32.9055 32.2677V33.5591H27.748V32.2677H32.9055ZM29.0315 30.9843V15.5354H31.6142V30.9843H29.0315ZM32.9055 14.2441H27.748V12.9528H32.9055V14.2441ZM3.87402 11.6693V8.44882H6.25984L20 1.44882L33.7402 8.44882H36.126V11.6693H3.87402ZM22.5827 30.9921V30.9843V15.5354H23.874V12.9606H26.4567V15.5354H27.748V30.9921H26.4567V33.5669H23.874V30.9921H22.5827ZM12.2598 30.9921V15.5354H13.5512V12.9606H16.1339V15.5354H17.4252V30.9921H16.1339V33.5669H13.5512V30.9921H12.2598ZM17.4173 32.2756H22.5748V33.5669H17.4173V32.2756ZM18.7087 30.9843V15.5354H21.2913V30.9843H18.7087ZM17.4173 14.2441V12.9528H22.5748V14.2441H17.4173ZM7.09449 14.252V12.9606H12.252V14.252H7.09449ZM10.9685 15.5354V30.9921H8.38583V15.5354H10.9685ZM7.09449 32.2756H12.252V33.5669H7.09449V32.2756ZM5.15748 34.8504H34.8346V36.1417H5.15748V34.8504ZM36.7717 38.7087H3.22835V37.4173H36.7717V38.7087Z" fill="#9E2A2B"/>
<path d="M20.0007 4.58276C18.5755 4.58276 17.418 5.74024 17.418 7.15757C17.418 8.57489 18.5755 9.74024 20.0007 9.74024C21.4259 9.74024 22.5833 8.58276 22.5833 7.16544C22.5833 5.74812 21.4259 4.58276 20.0007 4.58276ZM20.0007 8.45678C19.292 8.45678 18.7093 7.88197 18.7093 7.16544C18.7093 6.4489 19.292 5.8741 20.0007 5.8741C20.7093 5.8741 21.292 6.4489 21.292 7.16544C21.292 7.88197 20.7093 8.45678 20.0007 8.45678Z" fill="#9E2A2B"/>
</svg>
