<svg width="47" height="40" viewBox="0 0 47 40" fill="none" xmlns="http://www.w3.org/2000/svg">
<path d="M11.3703 17.2131H3.79297V18.7305H11.3703V17.2131Z" fill="#9E2A2B"/>
<path d="M12.8877 21.7651H3.79297V23.2825H12.8877V21.7651Z" fill="#9E2A2B"/>
<path d="M23.5087 21.7651H17.4395V23.2825H23.5087V21.7651Z" fill="#9E2A2B"/>
<path d="M29.569 26.3171H3.79297V27.8345H29.569V26.3171Z" fill="#9E2A2B"/>
<path d="M45.8898 1.65133C43.9839 -0.25458 41.2453 0.938925 40.5329 1.65133L29.5138 12.6704H0V32.3771H37.9053V15.0019L45.8898 7.01747C47.3701 5.53716 47.3701 3.13164 45.8898 1.65133ZM29.8098 14.5116L33.0295 17.7313L30.8831 19.8777L27.6634 16.658L29.8098 14.5116ZM29.3472 20.4791L26.4884 21.0527L27.062 18.1939L29.3472 20.4791ZM36.388 30.8598H1.51732V14.1878H27.9965L25.8963 16.288L24.5547 22.9864L31.2531 21.6448L36.388 16.51V30.8598V30.8598ZM34.1028 16.658L30.8831 13.4476L41.0695 3.26117L44.2892 6.48086L34.1028 16.658ZM45.2606 5.30586L42.2445 2.28971C43.0864 1.91038 44.1504 2.04916 44.8165 2.72456C45.5197 3.41845 45.6585 4.45467 45.2606 5.30586Z" fill="#9E2A2B"/>
<path d="M41.0689 5.40305L36.7773 9.69458L37.8502 10.7675L42.1418 6.47595L41.0689 5.40305Z" fill="#9E2A2B"/>
</svg>
