<svg width="13" height="13" viewBox="0 0 13 13" fill="none" xmlns="http://www.w3.org/2000/svg">
<path d="M6.79869 0.873047C3.48669 0.873047 0.804688 3.56105 0.804688 6.87305C0.804688 10.185 3.48669 12.873 6.79869 12.873C10.1167 12.873 12.8047 10.185 12.8047 6.87305C12.8047 3.56105 10.1167 0.873047 6.79869 0.873047ZM6.80469 11.673C4.15269 11.673 2.00469 9.52505 2.00469 6.87305C2.00469 4.22105 4.15269 2.07305 6.80469 2.07305C9.45669 2.07305 11.6047 4.22105 11.6047 6.87305C11.6047 9.52505 9.45669 11.673 6.80469 11.673ZM7.10469 3.87305H6.20469V7.47305L9.35469 9.36305L9.80469 8.62505L7.10469 7.02305V3.87305Z" fill="white"/>
</svg>
