<svg width="12" height="13" viewBox="0 0 12 13" fill="none" xmlns="http://www.w3.org/2000/svg">
<path d="M5.994 0.90625C2.682 0.90625 0 3.59425 0 6.90625C0 10.2183 2.682 12.9062 5.994 12.9062C9.312 12.9062 12 10.2183 12 6.90625C12 3.59425 9.312 0.90625 5.994 0.90625ZM6 11.7063C3.348 11.7063 1.2 9.55825 1.2 6.90625C1.2 4.25425 3.348 2.10625 6 2.10625C8.652 2.10625 10.8 4.25425 10.8 6.90625C10.8 9.55825 8.652 11.7063 6 11.7063ZM6.3 3.90625H5.4V7.50625L8.55 9.39625L9 8.65825L6.3 7.05625V3.90625Z" fill="#6D6D6D"/>
</svg>
