<svg width="18" height="18" viewBox="0 0 18 18" fill="none" xmlns="http://www.w3.org/2000/svg">
<g clip-path="url(#clip0)">
<path d="M9.17623 0.665649C4.57623 0.665649 0.851227 4.39898 0.851227 8.99898C0.851227 13.599 4.57623 17.3323 9.17623 17.3323C13.7846 17.3323 17.5179 13.599 17.5179 8.99898C17.5179 4.39898 13.7846 0.665649 9.17623 0.665649ZM9.18456 15.6657C5.50123 15.6657 2.51789 12.6823 2.51789 8.99898C2.51789 5.31565 5.50123 2.33232 9.18456 2.33232C12.8679 2.33232 15.8512 5.31565 15.8512 8.99898C15.8512 12.6823 12.8679 15.6657 9.18456 15.6657Z" fill="#9E2A2B"/>
<path d="M9.60123 4.8324H8.35123V9.8324L12.7262 12.4574L13.3512 11.4324L9.60123 9.2074V4.8324Z" fill="#9E2A2B"/>
</g>
<defs>
<clipPath id="clip0">
<rect width="18" height="18" fill="white"/>
</clipPath>
</defs>
</svg>
