<svg width="40" height="40" viewBox="0 0 40 40" fill="none" xmlns="http://www.w3.org/2000/svg">
<path d="M37.1315 1.9845H2.86842C1.28699 1.9845 0 3.27149 0 4.85375V25.6172C0 27.1993 1.28699 28.4865 2.86842 28.4865H15.0107V32.9422H9.71817C8.90568 32.9422 8.2458 33.6013 8.2458 34.4154V36.5423C8.2458 37.3563 8.90588 38.0155 9.71817 38.0155H30.2819C31.0945 38.0155 31.7543 37.3563 31.7543 36.5423V34.4154C31.7543 33.6013 31.0943 32.9422 30.2819 32.9422H24.9893V28.4865H37.1314C38.7129 28.4865 40 27.1995 40 25.6172V4.85375C40.0001 3.27149 38.713 1.9845 37.1315 1.9845ZM2.79218 25.6172L2.86835 4.77675L37.2077 4.85375V25.6929L2.79218 25.6172ZM38.6039 23.9416C38.2058 23.9416 37.8825 23.6184 37.8825 23.2211C37.8825 22.8222 38.2058 22.4997 38.6039 22.4997C39.0021 22.4997 39.325 22.8221 39.325 23.2211C39.325 23.6186 39.0021 23.9416 38.6039 23.9416ZM38.6039 20.9334C38.2058 20.9334 37.8825 20.611 37.8825 20.2121C37.8825 19.8147 38.2058 19.4917 38.6039 19.4917C39.0021 19.4917 39.325 19.8149 39.325 20.2121C39.325 20.611 39.0021 20.9334 38.6039 20.9334Z" fill="#9E2A2B"/>
<path d="M18.7811 17.3014C18.9268 17.3464 19.0877 17.3047 19.1954 17.1966L20.3148 16.0772L22.9365 18.6976C23.0988 18.8591 23.3604 18.8591 23.5228 18.6976L24.5575 17.6641C24.6352 17.5872 24.6788 17.4814 24.6788 17.3718C24.6788 17.2621 24.6352 17.1563 24.5575 17.0787L21.9358 14.457L23.0565 13.3357C23.1628 13.2279 23.2051 13.0697 23.1615 12.9238C23.1152 12.7793 22.9939 12.6696 22.848 12.6389L18.0066 11.6614C17.8702 11.6342 17.7298 11.6765 17.6316 11.7746C17.5362 11.8734 17.4898 12.0138 17.5198 12.1489L18.4973 16.9876C18.5286 17.1357 18.6365 17.2584 18.7811 17.3014Z" fill="#9E2A2B"/>
</svg>
