<svg width="40" height="40" viewBox="0 0 40 40" fill="none" xmlns="http://www.w3.org/2000/svg">
<path d="M27.739 17.4133C27.0382 17.4133 26.3532 17.6496 25.802 18.0747C25.2666 17.6653 24.5973 17.4133 23.8729 17.4133C22.0933 17.4133 20.6445 18.8621 20.6445 20.6417C20.6445 22.4212 22.0933 23.87 23.8729 23.87C24.6052 23.87 25.2666 23.6181 25.8099 23.2086C26.3689 23.6338 27.0461 23.87 27.7469 23.87C29.5264 23.87 30.9752 22.4212 30.9752 20.6417C30.9674 18.8621 29.5185 17.4133 27.739 17.4133ZM23.8729 22.5787C22.802 22.5787 21.9359 21.7125 21.9359 20.6417C21.9359 19.5708 22.802 18.7047 23.8729 18.7047C24.9437 18.7047 25.8099 19.5708 25.8099 20.6417C25.802 21.7047 24.9359 22.5787 23.8729 22.5787ZM27.739 22.5787C27.3453 22.5787 26.9752 22.4606 26.6603 22.2401C26.9437 21.7519 27.0933 21.2007 27.0933 20.6417C27.0933 20.0826 26.9437 19.5314 26.6603 19.0433C26.9752 18.8228 27.3453 18.7047 27.739 18.7047C28.8099 18.7047 29.676 19.5708 29.676 20.6417C29.676 21.7047 28.8099 22.5787 27.739 22.5787Z" fill="#9E2A2B"/>
<path d="M7.74706 30.3188H3.87305V31.6102H7.74706V30.3188Z" fill="#9E2A2B"/>
<path d="M14.8428 30.3188H10.9688V31.6102H14.8428V30.3188Z" fill="#9E2A2B"/>
<path d="M21.9365 30.3188H18.0625V31.6102H21.9365V30.3188Z" fill="#9E2A2B"/>
<path d="M29.0322 30.3188H25.1582V31.6102H29.0322V30.3188Z" fill="#9E2A2B"/>
<path d="M11.6132 19.9961H3.87305V21.2874H11.6132V19.9961Z" fill="#9E2A2B"/>
<path d="M20.6447 25.1536H3.87305V26.4449H20.6447V25.1536Z" fill="#9E2A2B"/>
<path d="M36.7717 3.87012H8.38583C6.6063 3.87012 5.15748 5.31894 5.15748 7.09846V14.193H3.22835C1.44882 14.193 0 15.6418 0 17.4213V32.9016C0 34.6811 1.44882 36.13 3.22835 36.13H31.6142C33.3937 36.13 34.8425 34.6811 34.8425 32.9016V25.8071H36.7717C38.5512 25.8071 40 24.3583 40 22.5788V7.09059C40 5.31106 38.5512 3.87012 36.7717 3.87012ZM33.5512 32.9016C33.5512 33.9725 32.685 34.8386 31.6142 34.8386H3.22835C2.15748 34.8386 1.29134 33.9725 1.29134 32.9016V17.4134C1.29134 16.3426 2.15748 15.4764 3.22835 15.4764H31.6142C32.685 15.4764 33.5512 16.3426 33.5512 17.4134V32.9016ZM38.7087 22.5788C38.7087 23.6496 37.8425 24.5158 36.7717 24.5158H34.8346V17.4213C34.8346 15.6418 33.3858 14.193 31.6063 14.193H6.44882V11.6103H38.7087V22.5788ZM38.7087 10.3189H6.44882V9.0276H38.7087V10.3189ZM38.7087 7.73626H6.44882V7.09059C6.44882 6.01972 7.31496 5.15358 8.38583 5.15358H36.7717C37.8425 5.15358 38.7087 6.01972 38.7087 7.09059V7.73626Z" fill="#9E2A2B"/>
</svg>
