<svg width="25" height="26" viewBox="0 0 25 26" fill="none" xmlns="http://www.w3.org/2000/svg">
<g clip-path="url(#clip0)">
<path d="M12.5 7.99805C9.67285 7.99805 7.37305 10.2979 7.37305 13.125C7.37305 15.9521 9.67285 18.252 12.5 18.252C15.3271 18.252 17.627 15.9521 17.627 13.125C17.627 10.2979 15.3271 7.99805 12.5 7.99805ZM12.5 7.99805C9.67285 7.99805 7.37305 10.2979 7.37305 13.125C7.37305 15.9521 9.67285 18.252 12.5 18.252C15.3271 18.252 17.627 15.9521 17.627 13.125C17.627 10.2979 15.3271 7.99805 12.5 7.99805ZM21.3379 0.576172H3.66211C1.64062 0.576172 0 2.2168 0 4.23828V21.9141C0 23.9355 1.64062 25.5762 3.66211 25.5762H21.3379C23.3594 25.5762 25 23.9355 25 21.9141V4.23828C25 2.2168 23.3594 0.576172 21.3379 0.576172ZM12.5 19.7168C8.86724 19.7168 5.9082 16.7578 5.9082 13.125C5.9082 9.49214 8.86724 6.5332 12.5 6.5332C16.1328 6.5332 19.0918 9.49214 19.0918 13.125C19.0918 16.7578 16.1328 19.7168 12.5 19.7168ZM20.5566 6.5332C19.751 6.5332 19.0918 5.87402 19.0918 5.06836C19.0918 4.2627 19.751 3.60352 20.5566 3.60352C21.3623 3.60352 22.0215 4.2627 22.0215 5.06836C22.0215 5.87402 21.3623 6.5332 20.5566 6.5332ZM12.5 7.99805C9.67285 7.99805 7.37305 10.2979 7.37305 13.125C7.37305 15.9521 9.67285 18.252 12.5 18.252C15.3271 18.252 17.627 15.9521 17.627 13.125C17.627 10.2979 15.3271 7.99805 12.5 7.99805ZM12.5 7.99805C9.67285 7.99805 7.37305 10.2979 7.37305 13.125C7.37305 15.9521 9.67285 18.252 12.5 18.252C15.3271 18.252 17.627 15.9521 17.627 13.125C17.627 10.2979 15.3271 7.99805 12.5 7.99805ZM12.5 7.99805C9.67285 7.99805 7.37305 10.2979 7.37305 13.125C7.37305 15.9521 9.67285 18.252 12.5 18.252C15.3271 18.252 17.627 15.9521 17.627 13.125C17.627 10.2979 15.3271 7.99805 12.5 7.99805Z" fill="#9E2A2B"/>
</g>
<defs>
<clipPath id="clip0">
<rect width="25" height="25" fill="white" transform="translate(0 0.576172)"/>
</clipPath>
</defs>
</svg>
