<svg width="40" height="40" viewBox="0 0 40 40" fill="none" xmlns="http://www.w3.org/2000/svg">
<path d="M36.4844 6.29785H3.51562C1.57711 6.29785 0 7.87496 0 9.81348V30.1871C0 32.1256 1.57711 33.7027 3.51562 33.7027H36.4844C38.4229 33.7027 40 32.1256 40 30.1871V9.81348C40 7.87496 38.4229 6.29785 36.4844 6.29785ZM36.0255 8.6416L35.5563 9.03231L21.3948 20.8246C20.5866 21.4975 19.4133 21.4975 18.6052 20.8246L4.44367 9.03231L3.97445 8.6416H36.0255ZM2.34375 10.3336L13.8822 19.9417L2.34375 27.6208V10.3336ZM36.4844 31.3589H3.51562C2.94937 31.3589 2.47578 30.9552 2.36727 30.4206L15.7614 21.5064L17.1055 22.6257C17.9441 23.3239 18.9721 23.6731 20.0001 23.6731C21.028 23.6731 22.056 23.3239 22.8947 22.6257L24.2388 21.5064L37.6328 30.4205C37.5242 30.9553 37.0506 31.3589 36.4844 31.3589ZM37.6562 27.6208L26.1178 19.9418L37.6562 10.3336V27.6208Z" fill="#9E2A2B"/>
</svg>
