<svg width="40" height="40" viewBox="0 0 40 40" fill="none" xmlns="http://www.w3.org/2000/svg">
<g clip-path="url(#clip0)">
<path d="M28.1005 31.945L24.3883 28.2327C23.3172 27.1617 21.5743 27.1618 20.5035 28.2327L18.8726 29.8637C15.1476 27.913 12.0865 24.8519 10.1358 21.1269L11.7668 19.4959C12.8378 18.4249 12.8378 16.6822 11.7668 15.6112L8.05466 11.899C6.98364 10.8279 5.24091 10.8279 4.16989 11.899L1.20013 14.8688C-0.35159 16.4204 -0.400106 19.1558 1.06349 22.5709C2.38286 25.6495 4.80443 29.0399 7.882 32.1175C10.9596 35.1951 14.35 37.6166 17.4286 38.936C19.0838 39.6454 20.5792 39.9995 21.8576 39.9995C23.2169 39.9995 24.3311 39.599 25.1307 38.7994L28.1004 35.8297C28.6194 35.3108 28.9051 34.621 28.9051 33.8872C28.9051 33.1537 28.6194 32.4638 28.1005 31.945ZM26.4429 34.1722L23.4732 37.142C22.6691 37.946 20.7547 37.8114 18.3519 36.7816C15.5408 35.5769 12.4111 33.3319 9.53935 30.4601C6.66763 27.5883 4.42255 24.4587 3.21778 21.6476C2.1881 19.2449 2.05325 17.3304 2.85739 16.5263L5.82716 13.5565C5.98435 13.3994 6.23997 13.3994 6.39708 13.5565L10.1093 17.2687C10.2664 17.4258 10.2664 17.6815 10.1093 17.8386L7.29794 20.65L7.65154 21.3964C9.92154 26.1886 13.8109 30.078 18.6032 32.348L19.3496 32.7015L22.1609 29.8902C22.2636 29.7876 22.3836 29.7722 22.4458 29.7722C22.5081 29.7722 22.628 29.7875 22.7307 29.8901L26.4429 33.6023C26.5455 33.705 26.5609 33.8249 26.5609 33.8872C26.5611 33.9497 26.5456 34.0696 26.4429 34.1722Z" fill="#9E2A2B"/>
<path d="M36.3864 3.02828C34.1082 1.07547 31.0904 0 27.8889 0C24.6876 0 21.6697 1.07547 19.3914 3.02828C17.0615 5.02539 15.7783 7.69594 15.7783 10.548C15.7783 13.4 17.0615 16.0705 19.3914 18.0677C19.809 18.4255 20.2515 18.7537 20.7154 19.0513C19.8589 20.3417 18.8578 21.5277 17.7317 22.5828C20.1879 22.3797 22.5169 21.7288 24.6382 20.7135C25.684 20.9654 26.7754 21.0959 27.8889 21.0959C31.0904 21.0959 34.1082 20.0205 36.3864 18.0677C38.7164 16.0706 39.9997 13.4 39.9997 10.548C39.9997 7.69594 38.7164 5.02547 36.3864 3.02828ZM27.8889 18.752C22.5036 18.752 18.1223 15.0716 18.1223 10.548C18.1223 6.0243 22.5036 2.34398 27.8889 2.34398C33.2743 2.34398 37.6556 6.0243 37.6556 10.548C37.6557 15.0716 33.2743 18.752 27.8889 18.752Z" fill="#9E2A2B"/>
<path d="M27.8898 12.1107C28.7528 12.1107 29.4525 11.411 29.4525 10.548C29.4525 9.68498 28.7528 8.98535 27.8898 8.98535C27.0268 8.98535 26.3271 9.68498 26.3271 10.548C26.3271 11.411 27.0268 12.1107 27.8898 12.1107Z" fill="#9E2A2B"/>
<path d="M22.4201 12.1107C23.2831 12.1107 23.9827 11.411 23.9827 10.548C23.9827 9.68498 23.2831 8.98535 22.4201 8.98535C21.557 8.98535 20.8574 9.68498 20.8574 10.548C20.8574 11.411 21.557 12.1107 22.4201 12.1107Z" fill="#9E2A2B"/>
<path d="M33.3586 12.1107C34.2216 12.1107 34.9212 11.411 34.9212 10.548C34.9212 9.68498 34.2216 8.98535 33.3586 8.98535C32.4955 8.98535 31.7959 9.68498 31.7959 10.548C31.7959 11.411 32.4955 12.1107 33.3586 12.1107Z" fill="#9E2A2B"/>
</g>
<defs>
<clipPath id="clip0">
<rect width="40" height="40" fill="white"/>
</clipPath>
</defs>
</svg>
