<svg width="18" height="22" viewBox="0 0 18 22" fill="none" xmlns="http://www.w3.org/2000/svg">
<path d="M16.0933 14.8494C14.9419 14.8494 13.8279 14.6217 12.7888 14.2117C12.4612 14.075 12.0961 14.1775 11.8433 14.485L10.3736 16.7286C7.72441 15.1911 5.24369 12.2869 3.92376 8.95L5.7492 7.05944C6.00195 6.74056 6.07684 6.29639 5.97386 5.89778C5.6275 4.63361 5.44964 3.27833 5.44964 1.8775C5.44964 1.2625 5.02838 0.75 4.52288 0.75H1.2839C0.7784 0.75 0.169922 1.02333 0.169922 1.8775C0.169922 12.4578 7.40613 21.25 16.0933 21.25C16.758 21.25 17.0201 20.5325 17.0201 19.9061V15.9769C17.0201 15.3619 16.5988 14.8494 16.0933 14.8494Z" fill="#9E2A2B"/>
</svg>
