<svg width="20" height="20" viewBox="0 0 20 20" fill="none" xmlns="http://www.w3.org/2000/svg">
<path d="M9.99169 1.66669C5.39169 1.66669 1.66669 5.40002 1.66669 10C1.66669 14.6 5.39169 18.3334 9.99169 18.3334C14.6 18.3334 18.3334 14.6 18.3334 10C18.3334 5.40002 14.6 1.66669 9.99169 1.66669ZM10 16.6667C6.31669 16.6667 3.33335 13.6834 3.33335 10C3.33335 6.31669 6.31669 3.33335 10 3.33335C13.6834 3.33335 16.6667 6.31669 16.6667 10C16.6667 13.6834 13.6834 16.6667 10 16.6667Z" fill="#9E2A2B"/>
<path d="M10.4167 5.83331H9.16669V10.8333L13.5417 13.4583L14.1667 12.4333L10.4167 10.2083V5.83331Z" fill="#9E2A2B"/>
</svg>
