<svg width="20" height="20" viewBox="0 0 20 20" fill="none" xmlns="http://www.w3.org/2000/svg">
<path d="M16.23 12.6922C15.2733 12.6922 14.3478 12.5033 13.4844 12.1633C13.2122 12.05 12.9089 12.135 12.6989 12.39L11.4778 14.2506C9.27667 12.9756 7.21556 10.5672 6.11889 7.8L7.63556 6.23222C7.84556 5.96778 7.90778 5.59944 7.82222 5.26889C7.53444 4.22056 7.38667 3.09667 7.38667 1.935C7.38667 1.425 7.03667 1 6.61667 1H3.92556C3.50556 1 3 1.22667 3 1.935C3 10.7089 9.01222 18 16.23 18C16.7822 18 17 17.405 17 16.8856V13.6272C17 13.1172 16.65 12.6922 16.23 12.6922Z" fill="#9E2A2B"/>
</svg>
