<svg width="40" height="40" viewBox="0 0 40 40" fill="none" xmlns="http://www.w3.org/2000/svg">
<path d="M15.0029 7.5C10.8679 7.5 7.50293 10.865 7.50293 15C7.50293 19.135 10.8679 22.5 15.0029 22.5C19.1379 22.5 22.5029 19.135 22.5029 15C22.5029 10.865 19.1379 7.5 15.0029 7.5ZM15.0029 20C12.2454 20 10.0029 17.7575 10.0029 15C10.0029 12.2425 12.2454 10 15.0029 10C17.7604 10 20.0029 12.2425 20.0029 15C20.0029 17.7575 17.7604 20 15.0029 20Z" fill="#9E2A2B"/>
<path d="M38.7479 21.1375C38.6904 20.4925 38.1504 20 37.5029 20H35.0029V17.5C35.0029 14.7425 32.7604 12.5 30.0029 12.5C27.2454 12.5 25.0029 14.7425 25.0029 17.5V20H22.5029C21.8554 20 21.3154 20.4925 21.2579 21.1375L20.0029 35C20.0029 37.7575 22.2454 40 25.0029 40H35.0029C37.7604 40 40.0029 37.7575 39.9979 34.8875L38.7479 21.1375ZM27.5029 17.5C27.5029 16.12 28.6229 15 30.0029 15C31.3829 15 32.5029 16.12 32.5029 17.5V20H27.5029V17.5ZM35.0029 37.5H25.0029C23.6229 37.5 22.5029 36.38 22.4979 35.1125L23.6454 22.5H25.0029V26.25C25.0029 26.94 25.5629 27.5 26.2529 27.5C26.9429 27.5 27.5029 26.94 27.5029 26.25V22.5H32.5029V26.25C32.5029 26.94 33.0629 27.5 33.7529 27.5C34.4429 27.5 35.0029 26.94 35.0029 26.25V22.5H36.3629L37.5029 35C37.5029 36.38 36.3829 37.5 35.0029 37.5Z" fill="#9E2A2B"/>
<path d="M28.3739 8.19C25.7939 3.14 20.6714 0 15.0039 0C6.73141 0 0.00390625 6.7275 0.00390625 15C0.00390625 25.3975 13.5439 39.0575 14.1189 39.635C14.3639 39.8775 14.6839 40 15.0039 40C15.3239 40 15.6439 39.8775 15.8889 39.635C15.8889 39.635 16.3764 39.1475 17.1739 38.2875C17.6439 37.78 17.6114 36.9875 17.1064 36.52C16.5964 36.05 15.8064 36.085 15.3389 36.5875C15.2214 36.7175 15.1114 36.835 15.0089 36.945C12.0214 33.7525 2.50391 22.945 2.50391 15C2.50391 8.1075 8.11141 2.5 15.0039 2.5C19.7289 2.5 23.9964 5.1175 26.1464 9.3275C26.4614 9.945 27.2164 10.1875 27.8289 9.8725C28.4439 9.5575 28.6889 8.805 28.3739 8.19Z" fill="#9E2A2B"/>
</svg>
