<svg width="12" height="13" viewBox="0 0 12 13" fill="none" xmlns="http://www.w3.org/2000/svg">
<path d="M11.34 8.55997C10.52 8.55997 9.72667 8.42664 8.98667 8.18664C8.75333 8.10664 8.49333 8.16664 8.31333 8.34664L7.26667 9.65998C5.38 8.75997 3.61333 7.05997 2.67333 5.10664L3.97333 3.99997C4.15333 3.81331 4.20667 3.55331 4.13333 3.31997C3.88667 2.57997 3.76 1.78664 3.76 0.966641C3.76 0.606641 3.46 0.306641 3.1 0.306641H0.793333C0.433333 0.306641 0 0.466641 0 0.966641C0 7.15997 5.15333 12.3066 11.34 12.3066C11.8133 12.3066 12 11.8866 12 11.52V9.21997C12 8.85997 11.7 8.55997 11.34 8.55997Z" fill="#6D6D6D"/>
</svg>
