<svg width="25" height="26" viewBox="0 0 25 26" fill="none" xmlns="http://www.w3.org/2000/svg">
<g clip-path="url(#clip0)">
<path d="M12.5 25.5762C19.4036 25.5762 25 19.9797 25 13.0762C25 6.17261 19.4036 0.576172 12.5 0.576172C5.59644 0.576172 0 6.17261 0 13.0762C0 19.9797 5.59644 25.5762 12.5 25.5762Z" fill="#9E2A2B"/>
<path d="M5.72 12.806L17.7721 8.15917C18.3315 7.95708 18.82 8.29563 18.6388 9.14146L18.6398 9.14042L16.5877 18.8081C16.4356 19.4935 16.0283 19.6602 15.4585 19.3373L12.3335 17.0342L10.8263 18.4863C10.6596 18.6529 10.519 18.7935 10.196 18.7935L10.4179 15.6133L16.2096 10.381C16.4617 10.1592 16.1533 10.0342 15.821 10.255L8.66376 14.7613L5.57834 13.7988C4.90855 13.5863 4.89396 13.129 5.72 12.806Z" fill="#3A3C3C"/>
</g>
<defs>
<clipPath id="clip0">
<rect width="25" height="25" fill="white" transform="translate(0 0.576172)"/>
</clipPath>
</defs>
</svg>
