<svg width="40" height="40" viewBox="0 0 40 40" fill="none" xmlns="http://www.w3.org/2000/svg">
<g clip-path="url(#clip0)">
<path d="M32.4285 19.5446C36.528 15.8592 36.8638 9.54824 33.1783 5.44871C29.7982 1.68876 24.1405 1.05001 20.0071 3.96177C15.5013 0.781821 9.27077 1.85668 6.09082 6.36243C3.17295 10.4969 3.80911 16.1604 7.57148 19.5445C2.89664 22.0088 -0.0210628 26.8671 0.000114507 32.1516V36.4373C0.000114507 37.2263 0.639704 37.8659 1.42871 37.8659H38.5714C39.3604 37.8659 40 37.2263 40 36.4373V32.1516C40.021 26.8671 37.1033 22.0088 32.4285 19.5446ZM25.7142 5.00892C29.6535 5.00457 32.8505 8.19448 32.855 12.1338C32.8581 14.9433 31.2118 17.4928 28.6499 18.646C28.5399 18.6959 28.4299 18.7416 28.3185 18.7888C27.9659 18.9311 27.6023 19.0442 27.2313 19.1274C27.1599 19.1432 27.0885 19.1517 27.0156 19.166C26.6011 19.2455 26.1805 19.288 25.7585 19.2932C25.5685 19.2932 25.377 19.2789 25.187 19.2618C25.1156 19.2618 25.0441 19.2618 24.9727 19.2475C24.1608 19.1519 23.371 18.9191 22.637 18.5589C22.6099 18.546 22.5784 18.5474 22.5513 18.5361C22.4084 18.4675 22.2656 18.4075 22.1385 18.3303C22.15 18.316 22.1571 18.3003 22.1685 18.286C22.8235 17.4443 23.34 16.5035 23.6984 15.4989L23.7427 15.3789C23.9057 14.8991 24.0322 14.4077 24.1213 13.9088C24.1342 13.836 24.1441 13.766 24.1556 13.6874C24.2382 13.1796 24.2817 12.6662 24.2856 12.1517C24.2815 11.6382 24.2381 11.1257 24.1556 10.6188C24.1441 10.5446 24.1342 10.4759 24.1213 10.3974C24.0322 9.89863 23.9057 9.4072 23.7427 8.9274L23.6984 8.80737C23.34 7.80282 22.8234 6.86198 22.1685 6.02024C22.157 6.00593 22.1499 5.99028 22.1385 5.97596C23.2238 5.34282 24.4577 5.009 25.7142 5.00892ZM7.14291 12.1518C7.13278 8.21716 10.3142 5.0193 14.2488 5.00917C16.0931 5.0044 17.8675 5.71514 19.1986 6.99181C19.2815 7.07183 19.3629 7.15177 19.4429 7.23463C19.6882 7.49169 19.9144 7.76625 20.12 8.05603C20.1829 8.14459 20.2401 8.23893 20.2986 8.33033C20.4982 8.63761 20.6735 8.96004 20.8228 9.29461C20.8586 9.37606 20.8857 9.45893 20.9171 9.54029C21.0676 9.91035 21.1862 10.2927 21.2714 10.6831C21.2814 10.726 21.2843 10.7688 21.2928 10.8131C21.4738 11.7001 21.4738 12.6146 21.2928 13.5016C21.2843 13.5459 21.2813 13.5888 21.2714 13.6316C21.1863 14.022 21.0677 14.4044 20.9171 14.7744C20.8857 14.8559 20.8585 14.9388 20.8228 15.0201C20.6733 15.3542 20.498 15.6761 20.2986 15.983C20.24 16.0744 20.1829 16.1687 20.12 16.2573C19.9145 16.5471 19.6882 16.8216 19.4429 17.0787C19.3628 17.1615 19.2814 17.2416 19.1986 17.3215C18.6202 17.8727 17.9533 18.3228 17.2258 18.6529C17.1101 18.7057 16.9929 18.7544 16.8744 18.7958C16.53 18.9325 16.1757 19.0423 15.8144 19.1243C15.7244 19.1443 15.6315 19.1557 15.5401 19.1715C15.1522 19.2437 14.7589 19.2833 14.3644 19.2901H14.2073C13.8128 19.2834 13.4194 19.2437 13.0316 19.1715C12.9401 19.1557 12.8472 19.1443 12.7573 19.1243C12.396 19.0423 12.0416 18.9325 11.6973 18.7958C11.5787 18.7487 11.4616 18.7001 11.3459 18.6529C8.79006 17.499 7.14617 14.956 7.14291 12.1518ZM25.7142 35.0088H2.85722V32.1517C2.83629 27.3108 5.88633 22.9887 10.4543 21.386C12.9065 22.407 15.6648 22.407 18.1171 21.386C18.5941 21.5603 19.0589 21.766 19.5086 22.0018C19.8057 22.1546 20.08 22.3289 20.3657 22.5046C20.5514 22.6203 20.7399 22.7332 20.9186 22.8603C21.1943 23.056 21.4543 23.2689 21.71 23.4875C21.8743 23.6303 22.0371 23.7731 22.1914 23.916C22.4271 24.1388 22.6485 24.3746 22.8614 24.6161C23.0142 24.7903 23.1628 24.9674 23.3042 25.1503C23.4914 25.3903 23.67 25.6361 23.8357 25.8889C23.9786 26.1032 24.1057 26.326 24.2314 26.5489C24.3742 26.7946 24.5057 27.0403 24.6256 27.296C24.7456 27.5518 24.8514 27.8317 24.9542 28.1046C25.0441 28.3418 25.1399 28.5775 25.2141 28.8189C25.3142 29.1503 25.3841 29.4931 25.4541 29.836C25.497 30.0388 25.5527 30.2374 25.5841 30.4431C25.6687 31.0087 25.7122 31.5797 25.7141 32.1517V35.0088H25.7142ZM37.1428 35.0088H28.5714V32.1517C28.5714 31.7045 28.5457 31.2616 28.5057 30.8231C28.4942 30.6945 28.4743 30.5674 28.46 30.4388C28.4214 30.1231 28.3771 29.8103 28.3171 29.5002C28.2914 29.3679 28.2643 29.235 28.2356 29.1016C28.1671 28.7836 28.0876 28.4683 27.9971 28.1559C27.9671 28.0531 27.9399 27.9488 27.9085 27.8474C27.5085 26.5686 26.9288 25.3532 26.1871 24.2375L26.1314 24.156C25.8857 23.7912 25.6233 23.4384 25.3442 23.0975L25.3343 23.0846C25.0486 22.7303 24.7385 22.386 24.4128 22.0603C24.4314 22.0603 24.4514 22.0603 24.4714 22.0603C24.8745 22.1133 25.2805 22.1419 25.6872 22.146H25.7658C26.1421 22.1427 26.5178 22.1184 26.8915 22.0732C27.0086 22.0589 27.1244 22.0374 27.2415 22.0189C27.5453 21.9722 27.8453 21.9117 28.1415 21.8375C28.2258 21.816 28.3115 21.796 28.3972 21.7718C28.7858 21.666 29.1675 21.5362 29.54 21.3832C34.1113 22.9842 37.1641 27.3083 37.1429 32.1518V35.0088H37.1428Z" fill="#9E2A2B"/>
</g>
<defs>
<clipPath id="clip0">
<rect width="40" height="40" fill="white"/>
</clipPath>
</defs>
</svg>
