<svg width="40" height="40" viewBox="0 0 40 40" fill="none" xmlns="http://www.w3.org/2000/svg">
<path d="M38.7087 22.5984V16.1575C38.7087 14.4646 37.3858 13.0866 35.7165 12.9606L31.2913 0L1.99213 10.0157L3 12.9606C1.33071 13.0787 0 14.4567 0 16.1575V36.7795C0 38.5512 1.44882 40 3.22835 40H35.4882C37.2677 40 38.7165 38.5512 38.7165 36.7795V30.3386H40V22.5984H38.7087ZM34.2677 12.685L34.3543 12.937H33.8976C34.0157 12.8425 34.1339 12.7559 34.2677 12.685ZM30.4882 1.6378L31.2992 4.00787C29.9213 4.31496 28.685 3.41732 28.1181 2.44882L30.4882 1.6378ZM7.24409 9.58268L26.8661 2.87402C27.6299 4.37008 29.1732 5.33071 30.8819 5.33071C31.1654 5.33071 31.4409 5.30709 31.7165 5.25197L33.8346 11.4331C33.1575 11.7795 32.5748 12.2913 32.1496 12.9291H23.9606C23.8976 12.4409 23.7874 11.9528 23.622 11.4724C22.7717 8.98425 20.3071 6.51181 17.4724 7.44094C15.5039 8.08661 14.4173 10.3937 14.7402 12.9291H6.55118C7.20472 11.9606 7.46457 10.7559 7.24409 9.58268ZM18.9606 9.7874L18.7953 9.30709L17.5748 9.72441L17.7402 10.1969C17.1181 10.6929 16.8346 11.5354 17.1102 12.3228C17.1811 12.5433 17.2992 12.748 17.4488 12.9213H16.0551C15.7323 10.937 16.4646 9.11024 17.8976 8.66929C19.874 8.04724 21.7402 9.95276 22.4094 11.8976C22.5276 12.2441 22.6142 12.5906 22.6693 12.937H21.2756C20.7717 12.3228 19.9213 12.0472 19.1496 12.3307C18.685 12.4961 18.3858 12.0945 18.3307 11.9213C18.2126 11.5906 18.3937 11.2205 18.7244 11.1024C19.0709 10.9843 19.4331 11.1654 19.5512 11.5039L20.7717 11.0866C20.5039 10.2992 19.7638 9.80315 18.9606 9.7874ZM6 10.0079C6.14173 11.1181 5.69291 12.2362 4.80315 12.937H4.35433L3.62992 10.8189L6 10.0079ZM37.4252 36.7795H37.4173C37.4173 37.8425 36.5512 38.7165 35.4803 38.7165H3.22835C2.15748 38.7165 1.29134 37.8504 1.29134 36.7795V16.1575C1.29134 15.0945 2.15748 14.2283 3.22047 14.2283H35.4882C36.5512 14.2283 37.4173 15.0945 37.4173 16.1575V22.5984H35.4803V16.1575H3.22835V36.7795H35.4882V30.3386H37.4252V36.7795ZM30.9685 30.3307H34.1968V35.4882H4.51969V17.4409H34.1968V22.5984H30.9685C28.8346 22.5984 27.0945 24.3307 27.0945 26.4646C27.0945 28.5984 28.8346 30.3307 30.9685 30.3307ZM30.9685 29.0472C29.5433 29.0472 28.3858 27.8898 28.3858 26.4724C28.3858 25.0551 29.5433 23.8976 30.9685 23.8976H38.7087V29.0472H30.9685Z" fill="#9E2A2B"/>
<path d="M31.6147 24.5276C30.5439 24.5355 29.6777 25.4016 29.6777 26.4646C29.6777 27.5276 30.5439 28.4016 31.6147 28.4016C32.6856 28.4016 33.5518 27.5355 33.5518 26.4646C33.5518 25.4016 32.6856 24.5276 31.6147 24.5276ZM31.6147 27.1103C31.2604 27.1103 30.9691 26.8189 30.9691 26.4646C30.9691 26.1103 31.2604 25.8189 31.6147 25.8189C31.9691 25.8189 32.2604 26.1103 32.2604 26.4646C32.2604 26.8189 31.9691 27.1103 31.6147 27.1103Z" fill="#9E2A2B"/>
<path d="M25.8572 10.0324L24.6367 10.4497L25.054 11.6701L26.2744 11.2529L25.8572 10.0324Z" fill="#9E2A2B"/>
</svg>
