<svg width="25" height="26" viewBox="0 0 25 26" fill="none" xmlns="http://www.w3.org/2000/svg">
<g clip-path="url(#clip0)">
<path d="M12.5031 0.576172H12.4969C5.60469 0.576172 0 6.18242 0 13.0762C0 15.8105 0.88125 18.3449 2.37969 20.4027L0.821875 25.0465L5.62656 23.5105C7.60313 24.8199 9.96094 25.5762 12.5031 25.5762C19.3953 25.5762 25 19.9684 25 13.0762C25 6.18398 19.3953 0.576172 12.5031 0.576172ZM19.7766 18.2277C19.475 19.0793 18.2781 19.7855 17.3234 19.9918C16.6703 20.1309 15.8172 20.2418 12.9453 19.0512C9.27187 17.5293 6.90625 13.7965 6.72188 13.5543C6.54531 13.3121 5.2375 11.5777 5.2375 9.78398C5.2375 7.99023 6.14844 7.1168 6.51562 6.7418C6.81719 6.43398 7.31562 6.29336 7.79375 6.29336C7.94844 6.29336 8.0875 6.30117 8.2125 6.30742C8.57969 6.32305 8.76406 6.34492 9.00625 6.92461C9.30781 7.65117 10.0422 9.44492 10.1297 9.6293C10.2188 9.81367 10.3078 10.0637 10.1828 10.3059C10.0656 10.5559 9.9625 10.6668 9.77812 10.8793C9.59375 11.0918 9.41875 11.2543 9.23438 11.4824C9.06563 11.6809 8.875 11.8934 9.0875 12.2605C9.3 12.6199 10.0344 13.8184 11.1156 14.7809C12.5109 16.023 13.6422 16.4199 14.0469 16.5887C14.3484 16.7137 14.7078 16.684 14.9281 16.4496C15.2078 16.148 15.5531 15.648 15.9047 15.1559C16.1547 14.8027 16.4703 14.759 16.8016 14.884C17.1391 15.0012 18.925 15.884 19.2922 16.0668C19.6594 16.2512 19.9016 16.3387 19.9906 16.4934C20.0781 16.648 20.0781 17.3746 19.7766 18.2277Z" fill="#9E2A2B"/>
</g>
<defs>
<clipPath id="clip0">
<rect width="25" height="25" fill="white" transform="translate(0 0.576172)"/>
</clipPath>
</defs>
</svg>
